Coordinates
version=1
nRows=14
nColumns=24
inDegrees=yes

Units are S.I. units (second, meters, Newtons, ...)
Angles are in degrees.

endheader
time	pelvis_tilt	pelvis_list	pelvis_rotation	pelvis_tx	pelvis_ty	pelvis_tz	hip_flexion_r	hip_adduction_r	hip_rotation_r	knee_angle_r	ankle_angle_r	subtalar_angle_r	mtp_angle_r	hip_flexion_l	hip_adduction_l	hip_rotation_l	knee_angle_l	ankle_angle_l	subtalar_angle_l	mtp_angle_l	lumbar_extension	lumbar_bending	lumbar_rotation
      1.24000000	     23.24478895	     -5.87405446	     -2.20952849	     -0.50567649	      0.88155228	     -0.00733935	    -47.78140007	      4.97160563	     14.79108007	      5.86749962	     12.77258984	      5.78004084	     31.77318626	     -1.13356973	     -2.21200162	     17.42170811	     -4.14890676	     -5.80435313	    -41.07904584	     34.80076001	    -33.46766918	      6.46518731	     12.14647109
      1.24500000	     23.19765662	     -5.78007863	     -2.35708000	     -0.49876755	      0.88089915	     -0.00717952	    -47.91691704	      4.85648436	     14.44665984	      5.27980633	     12.97211245	      6.26553780	     32.01084028	     -1.10584562	     -1.87415794	     17.43879201	     -5.23331478	     -6.12737539	    -40.79265782	     34.77486121	    -33.29446583	      6.23875117	     12.13117556
      1.25000000	     23.19120780	     -5.72182511	     -2.55983469	     -0.49193906	      0.88035317	     -0.00693025	    -48.05111203	      4.72373701	     14.04607685	      4.60680915	     13.16921289	      7.06477987	     32.34737218	     -1.16728874	     -1.58317413	     17.34164072	     -6.21707955	     -6.67109629	    -40.77736413	     34.60804416	    -33.19565518	      6.01884140	     12.28407498
      1.25500000	     23.16932895	     -5.66180447	     -2.70173072	     -0.48513041	      0.87994597	     -0.00675192	    -48.13715238	      4.61827864	     13.67878305	      3.90841674	     13.15453440	      7.73471184	     33.13881692	     -1.23636391	     -1.29589755	     17.36052449	     -6.92889229	     -8.15847343	    -41.95348765	     33.45609560	    -33.06618646	      5.83465844	     12.35286998
      1.26000000	     23.23557023	     -5.61565494	     -2.90133055	     -0.47859158	      0.87991661	     -0.00643618	    -48.23760868	      4.47132342	     13.38327441	      3.11346602	     13.10833588	      8.51515407	     33.84672549	     -1.42049496	     -1.09050640	     17.34163539	     -7.28443645	     -9.86261030	    -43.24591308	     32.23112439	    -33.06244554	      5.59407568	     12.55487916
      1.26500000	     23.32549004	     -5.47804064	     -3.09941995	     -0.47217081	      0.88007735	     -0.00614516	    -48.31645092	      4.24327787	     13.10347722	      2.26384926	     13.00530202	      9.13712410	     34.56868003	     -1.65346566	     -0.84566629	     17.31357068	     -7.39967788	    -10.95710665	    -43.89358130	     31.66459908	    -33.08426549	      5.24534948	     12.73537752
      1.27000000	     23.42553566	     -5.28986555	     -3.25289901	     -0.46564512	      0.88044436	     -0.00589719	    -48.38289665	      4.00647975	     12.76966209	      1.36232794	     12.86404835	      9.82107561	     35.25431828	     -1.91164672	     -0.55680761	     17.52349631	     -7.53908197	    -11.59166574	    -43.73393475	     31.81342091	    -33.11407071	      4.87157929	     12.79626913
      1.27500000	     23.49477885	     -5.05203079	     -3.36182656	     -0.45898742	      0.88087518	     -0.00568722	    -48.43619648	      3.75871959	     12.40131337	      0.53636840	     12.37529271	     10.21664010	     37.89942839	     -2.21742789	     -0.21911796	     17.96849721	     -7.62823493	    -12.45558676	    -43.48772339	     33.78211789	    -33.09515852	      4.50018826	     12.74121912
      1.28000000	     23.64765026	     -4.86556766	     -3.50218765	     -0.45224341	      0.88157465	     -0.00552258	    -48.48126829	      3.51205891	     11.92215333	     -0.53231788	     12.21073374	     11.35045894	     38.18003406	     -2.66892959	      0.09586628	     18.27863163	     -7.80335777	    -13.51624432	    -43.23747818	     33.97022275	    -33.15360623	      4.16188365	     12.79154257
      1.28500000	     23.80448394	     -4.68808179	     -3.65157102	     -0.44551981	      0.88240720	     -0.00537632	    -48.49525073	      3.25464608	     11.51993097	     -1.62119082	     11.84749480	     12.28224519	     38.52148415	     -3.08291804	      0.44102981	     18.48896815	     -8.21990474	    -14.47076775	    -42.92940992	     34.24277022	    -33.23058094	      3.81781146	     12.86906422
      1.29000000	     23.96376060	     -4.50258952	     -3.78771967	     -0.43888358	      0.88331637	     -0.00527538	    -48.53466823	      2.98102722	     11.28201637	     -2.61926115	     11.27649622	     12.86436342	     38.73095151	     -3.50847255	      0.80694642	     18.70030066	     -8.69174345	    -15.17083970	    -42.40730586	     34.35843332	    -33.31834260	      3.47563159	     12.87751049
      1.29500000	     24.10801746	     -4.35752051	     -3.91524679	     -0.43208616	      0.88431382	     -0.00506729	    -48.44894712	      2.76235834	     10.84602055	     -3.87419974	     10.70187367	     13.84720152	     39.15840712	     -3.94637657	      1.12431205	     18.82796393	     -9.14740997	    -15.57632124	    -42.26350335	     34.42163234	    -33.38171297	      3.17679860	     12.88858230
      1.30000000	     24.19783837	     -4.19973714	     -4.02758438	     -0.42529717	      0.88532269	     -0.00481352	    -48.24035257	      2.54586379	     10.37842788	     -5.21749717	     10.15278118	     14.95832520	     39.72254243	     -4.34817166	      1.43301640	     19.00417213	     -9.52310747	    -15.80199018	    -42.35044033	     34.34582236	    -33.37275545	      2.85792787	     12.98354168
      1.30500000	     24.29329972	     -4.03415928	     -4.13207296	     -0.41841521	      0.88641321	     -0.00470212	    -47.99324057	      2.30360984	      9.79611844	     -6.62494438	      9.52129257	     16.34023869	     40.49692189	     -4.73964565	      1.74070116	     19.07793395	     -9.89382145	    -16.05178883	    -42.58746619	     34.16204248	    -33.36403262	      2.56493473	     13.00015878
